{
	"asset":{
		"generator":"Khronos glTF Blender I/O v4.1.63",
		"version":"2.0"
	},
	"extensionsUsed":[
		"KHR_materials_specular"
	],
	"scene":0,
	"scenes":[
		{
			"name":"Scene",
			"nodes":[
				0
			]
		}
	],
	"nodes":[
		{
			"mesh":0,
			"name":"Object_2",
			"rotation":[
				-0.70710688829422,
				0,
				0,
				0.7071066498756409
			]
		}
	],
	"materials":[
		{
			"doubleSided":true,
			"extensions":{
				"KHR_materials_specular":{
					"specularFactor":0.10000000149011612
				}
			},
			"name":"NCorp33",
			"normalTexture":{
				"index":0
			},
			"pbrMetallicRoughness":{
				"baseColorTexture":{
					"index":1
				},
				"metallicFactor":0,
				"metallicRoughnessTexture":{
					"index":2
				}
			}
		}
	],
	"meshes":[
		{
			"name":"Object_0",
			"primitives":[
				{
					"attributes":{
						"POSITION":0,
						"NORMAL":1,
						"TEXCOORD_0":2
					},
					"indices":3,
					"material":0
				}
			]
		}
	],
	"textures":[
		{
			"sampler":0,
			"source":0
		},
		{
			"sampler":0,
			"source":1
		},
		{
			"sampler":0,
			"source":2
		}
	],
	"images":[
		{
			"mimeType":"image/png",
			"name":"NCorp33_normal.png",
			"uri":"textures/NCorp33_normal.png"
		},
		{
			"mimeType":"image/png",
			"name":"NCorp33_baseColor.png",
			"uri":"textures/NCorp33_baseColor.png"
		},
		{
			"mimeType":"image/png",
			"name":"NCorp33_metallicRoughness.png",
			"uri":"textures/NCorp33_metallicRoughness.png"
		}
	],
	"accessors":[
		{
			"bufferView":0,
			"componentType":5126,
			"count":3281,
			"max":[
				0.6100733280181885,
				0.5006979703903198,
				1.4195995330810547
			],
			"min":[
				-0.5086417198181152,
				-0.5278397798538208,
				0.005055665969848633
			],
			"type":"VEC3"
		},
		{
			"bufferView":1,
			"componentType":5126,
			"count":3281,
			"type":"VEC3"
		},
		{
			"bufferView":2,
			"componentType":5126,
			"count":3281,
			"type":"VEC2"
		},
		{
			"bufferView":3,
			"componentType":5123,
			"count":11280,
			"type":"SCALAR"
		}
	],
	"bufferViews":[
		{
			"buffer":0,
			"byteLength":39372,
			"byteOffset":0,
			"target":34962
		},
		{
			"buffer":0,
			"byteLength":39372,
			"byteOffset":39372,
			"target":34962
		},
		{
			"buffer":0,
			"byteLength":26248,
			"byteOffset":78744,
			"target":34962
		},
		{
			"buffer":0,
			"byteLength":22560,
			"byteOffset":104992,
			"target":34963
		}
	],
	"samplers":[
		{
			"magFilter":9729,
			"minFilter":9987
		}
	],
	"buffers":[
		{
			"byteLength":127552,
			"uri":"Printer.bin"
		}
	]
}
