{
  "accessors": [
    {
      "bufferView": 2,
      "componentType": 5126,
      "count": 931,
      "max": [
        0.4006895422935486,
        0.5,
        0.6676706671714783
      ],
      "min": [
        -0.4000000059604645,
        -0.5,
        0.0
      ],
      "type": "VEC3"
    },
    {
      "bufferView": 2,
      "byteOffset": 11172,
      "componentType": 5126,
      "count": 931,
      "max": [
        1.0,
        1.0,
        1.0
      ],
      "min": [
        -1.0,
        -1.0,
        -1.0
      ],
      "type": "VEC3"
    },
    {
      "bufferView": 1,
      "componentType": 5126,
      "count": 931,
      "max": [
        0.993990421295166,
        0.9837126731872559
      ],
      "min": [
        0.010118713602423668,
        0.010798722505569458
      ],
      "type": "VEC2"
    },
    {
      "bufferView": 0,
      "componentType": 5125,
      "count": 1047,
      "type": "SCALAR"
    },
    {
      "bufferView": 2,
      "byteOffset": 22344,
      "componentType": 5126,
      "count": 365,
      "max": [
        -0.46000000834465027,
        0.47999998927116394,
        0.1599999964237213
      ],
      "min": [
        -1.2100000381469727,
        -0.47999998927116394,
        0.019999999552965164
      ],
      "type": "VEC3"
    },
    {
      "bufferView": 2,
      "byteOffset": 26724,
      "componentType": 5126,
      "count": 365,
      "max": [
        1.0,
        1.0,
        1.0
      ],
      "min": [
        -1.0,
        -1.0,
        -1.0
      ],
      "type": "VEC3"
    },
    {
      "bufferView": 1,
      "byteOffset": 7448,
      "componentType": 5126,
      "count": 365,
      "max": [
        0.9867981672286987,
        0.9858370423316956
      ],
      "min": [
        0.3524963855743408,
        0.014163034968078136
      ],
      "type": "VEC2"
    },
    {
      "bufferView": 0,
      "byteOffset": 4188,
      "componentType": 5125,
      "count": 516,
      "type": "SCALAR"
    },
    {
      "bufferView": 3,
      "componentType": 5126,
      "count": 28,
      "max": [
        0.5833333134651184
      ],
      "min": [
        0.0
      ],
      "type": "SCALAR"
    },
    {
      "bufferView": 4,
      "componentType": 5126,
      "count": 28,
      "max": [
        16099.8623046875,
        0.0,
        -19.998737335205078
      ],
      "min": [
        5107.0,
        0.0,
        -19.998737335205078
      ],
      "type": "VEC3"
    },
    {
      "bufferView": 3,
      "byteOffset": 112,
      "componentType": 5126,
      "count": 28,
      "max": [
        0.5833333134651184
      ],
      "min": [
        0.0
      ],
      "type": "SCALAR"
    },
    {
      "bufferView": 4,
      "byteOffset": 336,
      "componentType": 5126,
      "count": 28,
      "max": [
        15999.9990234375,
        0.0,
        -19.998737335205078
      ],
      "min": [
        5003.70361328125,
        0.0,
        -19.998737335205078
      ],
      "type": "VEC3"
    }
  ],
  "animations": [
    {
      "channels": [
        {
          "sampler": 0,
          "target": {
            "node": 6,
            "path": "translation"
          }
        }
      ],
      "name": "Box|Close",
      "samplers": [
        {
          "input": 8,
          "interpolation": "LINEAR",
          "output": 9
        }
      ]
    },
    {
      "channels": [
        {
          "sampler": 0,
          "target": {
            "node": 6,
            "path": "translation"
          }
        }
      ],
      "name": "Box|Open",
      "samplers": [
        {
          "input": 10,
          "interpolation": "LINEAR",
          "output": 11
        }
      ]
    }
  ],
  "asset": {
    "extras": {
      "author": "Wayneer (https://sketchfab.com/wayneer)",
      "license": "CC-BY-4.0 (http://creativecommons.org/licenses/by/4.0/)",
      "source": "https://sketchfab.com/3d-models/low-poly-cash-register-42f7f90246e440f59438ad22b866f84e",
      "title": "Low Poly Cash Register"
    },
    "generator": "Sketchfab-15.98.0",
    "version": "2.0"
  },
  "bufferViews": [
    {
      "buffer": 0,
      "byteLength": 6252,
      "name": "floatBufferViews",
      "target": 34963
    },
    {
      "buffer": 0,
      "byteLength": 10368,
      "byteOffset": 6252,
      "byteStride": 8,
      "name": "floatBufferViews",
      "target": 34962
    },
    {
      "buffer": 0,
      "byteLength": 31104,
      "byteOffset": 16620,
      "byteStride": 12,
      "name": "floatBufferViews",
      "target": 34962
    },
    {
      "buffer": 0,
      "byteLength": 224,
      "byteOffset": 47724,
      "name": "floatBufferViews"
    },
    {
      "buffer": 0,
      "byteLength": 672,
      "byteOffset": 47948,
      "byteStride": 12,
      "name": "floatBufferViews"
    }
  ],
  "buffers": [
    {
      "byteLength": 48620,
      "uri": "scene.bin"
    }
  ],
  "images": [
    {
      "uri": "textures/Cashier_Body_Material_baseColor.jpeg"
    }
  ],
  "materials": [
    {
      "doubleSided": true,
      "name": "Cashier_Body_Material",
      "pbrMetallicRoughness": {
        "baseColorTexture": {
          "index": 0
        },
        "metallicFactor": 0.0,
        "roughnessFactor": 0.8211145618000169
      }
    }
  ],
  "meshes": [
    {
      "name": "Body_Cashier_Body_Material_0",
      "primitives": [
        {
          "attributes": {
            "NORMAL": 1,
            "POSITION": 0,
            "TEXCOORD_0": 2
          },
          "indices": 3,
          "material": 0,
          "mode": 4
        }
      ]
    },
    {
      "name": "Box_Cashier_Body_Material_0",
      "primitives": [
        {
          "attributes": {
            "NORMAL": 5,
            "POSITION": 4,
            "TEXCOORD_0": 6
          },
          "indices": 7,
          "material": 0,
          "mode": 4
        }
      ]
    }
  ],
  "nodes": [
    {
      "children": [
        1
      ],
      "matrix": [
        0.011060083284974098,
        0.0,
        0.0,
        0.0,
        0.0,
        2.455831823450016e-18,
        -0.011060083284974098,
        0.0,
        0.0,
        0.011060083284974098,
        2.455831823450016e-18,
        0.0,
        0.0,
        0.0,
        0.0,
        1.0
      ],
      "name": "Sketchfab_model"
    },
    {
      "children": [
        2
      ],
      "matrix": [
        0.009999999776482582,
        0.0,
        0.0,
        0.0,
        0.0,
        0.0,
        0.009999999776482582,
        0.0,
        0.0,
        -0.009999999776482582,
        0.0,
        0.0,
        0.0,
        0.0,
        0.0,
        1.0
      ],
      "name": "dca65085d4c540d6941a6ce4380f675b.fbx"
    },
    {
      "children": [
        3
      ],
      "name": "Object_2"
    },
    {
      "children": [
        4,
        6
      ],
      "name": "RootNode"
    },
    {
      "children": [
        5
      ],
      "name": "Body",
      "rotation": [
        -0.7071068286895752,
        0.0,
        0.0,
        0.7071067094802856
      ],
      "scale": [
        20000.0,
        20000.0,
        20000.0
      ]
    },
    {
      "mesh": 0,
      "name": "Body_Cashier_Body_Material_0"
    },
    {
      "children": [
        7
      ],
      "name": "Box",
      "rotation": [
        -0.7071068286895752,
        0.0,
        0.0,
        0.7071067094802856
      ],
      "scale": [
        20000.0,
        20000.0,
        20000.0
      ],
      "translation": [
        15999.9990234375,
        0.0,
        -19.998737335205078
      ]
    },
    {
      "mesh": 1,
      "name": "Box_Cashier_Body_Material_0"
    }
  ],
  "samplers": [
    {
      "magFilter": 9729,
      "minFilter": 9987,
      "wrapS": 10497,
      "wrapT": 10497
    }
  ],
  "scene": 0,
  "scenes": [
    {
      "name": "Sketchfab_Scene",
      "nodes": [
        0
      ]
    }
  ],
  "textures": [
    {
      "sampler": 0,
      "source": 0
    }
  ]
}
